ply
format ascii 1.0
comment VTK generated PLY File
obj_info vtkPolyData points and polygons: vtk4.0
element vertex 54
property float x
property float y
property float z
property uchar red
property uchar green
property uchar blue
property float density
property float temperature
property float pressure
element face 48
property list uchar int vertex_indices
end_header
-1 -1 -1 90 120 228 -6.0 -1.0 -1.0 
-1 0 -1 129 164 251 -4.0 3.0 -2.0 
-1 1 -1 59 76 192 -2.0 -1.0 -1.0 
-1 -1 0 153 185 255 -3.0 -3.0 0.0 
-1 0 0 222 220 218 -1.0 1.0 -1.0 
-1 1 0 115 150 245 1.0 -3.0 0.0 
-1 -1 1 90 120 228 0.0 -1.0 1.0 
-1 0 1 129 164 251 2.0 3.0 0.0 
-1 1 1 59 76 192 4.0 -1.0 1.0 
1 -1 -1 121 156 247 -4.0 -1.0 1.0 
1 -1 0 183 207 249 -1.0 -3.0 2.0 
1 -1 1 121 156 247 2.0 -1.0 3.0 
1 0 -1 161 192 255 -2.0 3.0 0.0 
1 0 0 241 205 186 1.0 1.0 1.0 
1 0 1 161 192 255 4.0 3.0 2.0 
1 1 -1 85 114 223 0.0 -1.0 1.0 
1 1 0 147 181 255 3.0 -3.0 2.0 
1 1 1 85 114 223 6.0 -1.0 3.0 
-1 -1 -1 90 120 228 -6.0 -1.0 -1.0 
-1 -1 0 153 185 255 -3.0 -3.0 0.0 
-1 -1 1 90 120 228 0.0 -1.0 1.0 
0 -1 -1 163 194 254 -5.0 -2.0 0.0 
0 -1 0 242 202 181 -2.0 -4.0 1.0 
0 -1 1 163 194 254 1.0 -2.0 2.0 
1 -1 -1 121 156 247 -4.0 -1.0 1.0 
1 -1 0 183 207 249 -1.0 -3.0 2.0 
1 -1 1 121 156 247 2.0 -1.0 3.0 
-1 1 -1 59 76 192 -2.0 -1.0 -1.0 
0 1 -1 126 161 250 -1.0 -2.0 0.0 
1 1 -1 85 114 223 0.0 -1.0 1.0 
-1 1 0 115 150 245 1.0 -3.0 0.0 
0 1 0 220 221 221 2.0 -4.0 1.0 
1 1 0 147 181 255 3.0 -3.0 2.0 
-1 1 1 59 76 192 4.0 -1.0 1.0 
0 1 1 126 161 250 5.0 -2.0 2.0 
1 1 1 85 114 223 6.0 -1.0 3.0 
-1 -1 -1 90 120 228 -6.0 -1.0 -1.0 
0 -1 -1 163 194 254 -5.0 -2.0 0.0 
1 -1 -1 121 156 247 -4.0 -1.0 1.0 
-1 0 -1 129 164 251 -4.0 3.0 -2.0 
0 0 -1 230 215 207 -3.0 2.0 -1.0 
1 0 -1 161 192 255 -2.0 3.0 0.0 
-1 1 -1 59 76 192 -2.0 -1.0 -1.0 
0 1 -1 126 161 250 -1.0 -2.0 0.0 
1 1 -1 85 114 223 0.0 -1.0 1.0 
-1 -1 1 90 120 228 0.0 -1.0 1.0 
-1 0 1 129 164 251 2.0 3.0 0.0 
-1 1 1 59 76 192 4.0 -1.0 1.0 
0 -1 1 163 194 254 1.0 -2.0 2.0 
0 0 1 230 215 207 3.0 2.0 1.0 
0 1 1 126 161 250 5.0 -2.0 2.0 
1 -1 1 121 156 247 2.0 -1.0 3.0 
1 0 1 161 192 255 4.0 3.0 2.0 
1 1 1 85 114 223 6.0 -1.0 3.0 
3 0 3 1 
3 4 1 3 
3 1 4 2 
3 5 2 4 
3 3 6 4 
3 7 4 6 
3 4 7 5 
3 8 5 7 
3 9 12 10 
3 13 10 12 
3 10 13 11 
3 14 11 13 
3 12 15 13 
3 16 13 15 
3 13 16 14 
3 17 14 16 
3 18 21 19 
3 22 19 21 
3 19 22 20 
3 23 20 22 
3 21 24 22 
3 25 22 24 
3 22 25 23 
3 26 23 25 
3 27 30 28 
3 31 28 30 
3 28 31 29 
3 32 29 31 
3 30 33 31 
3 34 31 33 
3 31 34 32 
3 35 32 34 
3 36 39 37 
3 40 37 39 
3 37 40 38 
3 41 38 40 
3 39 42 40 
3 43 40 42 
3 40 43 41 
3 44 41 43 
3 45 48 46 
3 49 46 48 
3 46 49 47 
3 50 47 49 
3 48 51 49 
3 52 49 51 
3 49 52 50 
3 53 50 52 
